<?xml version="1.0" encoding="utf-8"?>
<!-- Generator: Adobe Illustrator 27.5.0, SVG Export Plug-In . SVG Version: 6.00 Build 0)  -->
<svg version="1.1" id="Design" xmlns="http://www.w3.org/2000/svg" xmlns:xlink="http://www.w3.org/1999/xlink" x="0px" y="0px"
	 viewBox="0 0 288 288" style="enable-background:new 0 0 288 288;" xml:space="preserve">
<g id="XMLID_688_">
	
		<radialGradient id="XMLID_00000054260864071155208000000003889828404366567081_" cx="142.6666" cy="119.3334" r="264.3393" gradientTransform="matrix(1 0.0034 -0.0028 0.8302 0.337 19.7801)" gradientUnits="userSpaceOnUse">
		<stop  offset="0.5561" style="stop-color:#FFFFFF"/>
		<stop  offset="1" style="stop-color:#F3F3F3"/>
	</radialGradient>
	<g id="XMLID_689_">
		
			<linearGradient id="XMLID_00000034081801206983598190000004110488896122995888_" gradientUnits="userSpaceOnUse" x1="-15.5476" y1="213.2109" x2="589.5297" y2="-8.0292">
			<stop  offset="0" style="stop-color:#FF009D"/>
			<stop  offset="0.0056" style="stop-color:#FC029E"/>
			<stop  offset="0.2757" style="stop-color:#765BBF"/>
			<stop  offset="0.4598" style="stop-color:#2194D5"/>
			<stop  offset="0.543" style="stop-color:#00AADD"/>
			<stop  offset="1" style="stop-color:#FFD400"/>
		</linearGradient>
		<path id="XMLID_5227_" style="fill:url(#XMLID_00000034081801206983598190000004110488896122995888_);" d="M27.336,164.272
			c1.213-1.525,2.067-2.345,3.113-3.377c1-0.96,2.021-1.863,3.059-2.722c2.087-1.713,4.242-3.256,6.461-4.671
			c4.437-2.822,9.11-5.111,13.893-6.97c9.588-3.705,19.603-5.645,29.541-6.366c19.896-1.511,39.591,2.107,57.99,6.906
			c18.554,4.407,37.06,9.033,55.743,12.369c9.336,1.599,18.763,2.853,28.211,2.577c9.445-0.214,18.824-2.474,27.572-6.29
			c-8.487,4.343-17.835,7.235-27.463,8.045c-9.62,0.879-19.285,0.191-28.816-0.847c-19.073-2.207-37.874-5.7-56.686-8.96
			c-9.462-1.705-18.603-3.358-27.907-3.974c-9.264-0.658-18.537-0.539-27.572,0.681c-9.023,1.212-17.823,3.53-25.838,7.219
			c-3.999,1.845-7.808,4.024-11.273,6.544c-1.729,1.261-3.374,2.607-4.893,4.026c-0.757,0.705-1.482,1.435-2.156,2.166
			c-0.619,0.674-1.393,1.607-1.631,1.978c-2.072,3.301-6.426,4.294-9.728,2.219c-3.299-2.074-4.288-6.429-2.216-9.73
			c0.141-0.219,0.289-0.43,0.442-0.631L27.336,164.272z"/>
		
			<linearGradient id="XMLID_00000149345270153845716270000007616796472093943461_" gradientUnits="userSpaceOnUse" x1="-9.4309" y1="229.939" x2="595.6465" y2="8.6989">
			<stop  offset="0" style="stop-color:#FF009D"/>
			<stop  offset="0.0056" style="stop-color:#FC029E"/>
			<stop  offset="0.2757" style="stop-color:#765BBF"/>
			<stop  offset="0.4598" style="stop-color:#2194D5"/>
			<stop  offset="0.543" style="stop-color:#00AADD"/>
			<stop  offset="1" style="stop-color:#FFD400"/>
		</linearGradient>
		<path id="XMLID_5226_" style="fill:url(#XMLID_00000149345270153845716270000007616796472093943461_);" d="M253.365,151.301
			c-3.847,1.981-7.344,3.036-11.084,4.042c-3.695,0.95-7.418,1.627-11.15,2.084c-7.479,0.91-14.931,1.008-22.372,0.43
			c-7.421-0.646-14.676-2.029-21.822-3.718c-7.152-1.708-14.206-3.718-21.143-6.071c7.097,1.8,14.266,3.243,21.472,4.374
			c7.203,1.112,14.455,1.903,21.65,1.962c7.172-0.009,14.401-0.72,21.366-2.153c3.486-0.718,6.917-1.64,10.23-2.79
			c3.242-1.129,6.673-2.586,9.21-4.182l0.152-0.096c1.648-1.039,3.824-0.543,4.861,1.105c1.041,1.648,0.545,3.825-1.101,4.862
			C253.543,151.204,253.454,151.257,253.365,151.301z"/>
		<g id="XMLID_690_">
			
				<linearGradient id="XMLID_00000037687250432184001070000017231896252610606752_" gradientUnits="userSpaceOnUse" x1="-17.407" y1="208.1255" x2="587.6724" y2="-13.1153">
				<stop  offset="0" style="stop-color:#FF009D"/>
				<stop  offset="0.0056" style="stop-color:#FC029E"/>
				<stop  offset="0.2757" style="stop-color:#765BBF"/>
				<stop  offset="0.4598" style="stop-color:#2194D5"/>
				<stop  offset="0.543" style="stop-color:#00AADD"/>
				<stop  offset="1" style="stop-color:#FFD400"/>
			</linearGradient>
			<polygon id="XMLID_5225_" style="fill:url(#XMLID_00000037687250432184001070000017231896252610606752_);" points="
				247.082,143.237 195.091,143.237 168.944,108.169 220.938,108.169 			"/>
			
				<radialGradient id="XMLID_00000101077515968791376500000008159836913454380459_" cx="196.7717" cy="203.6667" r="131.4705" gradientUnits="userSpaceOnUse">
				<stop  offset="0.3112" style="stop-color:#FFFFFF"/>
				<stop  offset="1" style="stop-color:#000000"/>
			</radialGradient>
			<path id="XMLID_691_" style="opacity:0.4;fill:url(#XMLID_00000101077515968791376500000008159836913454380459_);" d="
				M238.161,131.271l-17.223-23.102h-51.994l9.339,12.525c5.295-0.996,15.612-1.221,33.572,4.306
				C224.742,128.965,232.725,130.89,238.161,131.271z"/>
			
				<linearGradient id="XMLID_00000034808174935778059770000008229331485179666319_" gradientUnits="userSpaceOnUse" x1="-22.8223" y1="193.315" x2="582.2555" y2="-27.9253">
				<stop  offset="0" style="stop-color:#FF009D"/>
				<stop  offset="0.0056" style="stop-color:#FC029E"/>
				<stop  offset="0.2757" style="stop-color:#765BBF"/>
				<stop  offset="0.4598" style="stop-color:#2194D5"/>
				<stop  offset="0.543" style="stop-color:#00AADD"/>
				<stop  offset="1" style="stop-color:#FFD400"/>
			</linearGradient>
			<polygon id="XMLID_692_" style="fill:url(#XMLID_00000034808174935778059770000008229331485179666319_);" points="
				167.422,110.556 143.055,143.237 150.235,143.237 171.048,115.321 			"/>
		</g>
	</g>
	<g id="XMLID_693_">
		<g id="XMLID_694_">
			<path id="XMLID_695_" style="fill:#7559A6;" d="M92.665,223.191c-0.545,0-0.967,0.205-1.266,0.614
				c-0.299,0.41-0.448,0.98-0.448,1.712c0,1.523,0.571,2.285,1.714,2.285c0.479,0,1.061-0.12,1.743-0.36v1.215
				c-0.561,0.233-1.186,0.35-1.878,0.35c-0.994,0-1.754-0.301-2.28-0.904c-0.526-0.603-0.79-1.468-0.79-2.595
				c0-0.71,0.129-1.332,0.388-1.866c0.258-0.534,0.63-0.944,1.114-1.229c0.484-0.285,1.052-0.427,1.703-0.427
				c0.664,0,1.33,0.16,1.999,0.481l-0.467,1.177c-0.256-0.121-0.513-0.227-0.771-0.317
				C93.168,223.236,92.914,223.191,92.665,223.191z"/>
			<path id="XMLID_697_" style="fill:#7559A6;" d="M104.93,225.489c0,1.13-0.28,2-0.841,2.607c-0.561,0.607-1.364,0.911-2.411,0.911
				c-1.046,0-1.85-0.304-2.411-0.911c-0.56-0.607-0.841-1.479-0.841-2.616c0-1.137,0.281-2.005,0.843-2.605
				c0.562-0.599,1.368-0.899,2.418-0.899c1.05,0,1.853,0.302,2.408,0.906C104.653,223.486,104.93,224.356,104.93,225.489z
				 M99.946,225.489c0,0.763,0.145,1.337,0.434,1.724c0.29,0.386,0.723,0.58,1.299,0.58c1.155,0,1.733-0.768,1.733-2.303
				c0-1.538-0.575-2.308-1.724-2.308c-0.576,0-1.011,0.194-1.303,0.582C100.092,224.15,99.946,224.726,99.946,225.489z"/>
			<path id="XMLID_700_" style="fill:#7559A6;" d="M112.108,228.914l-1.645-5.358h-0.042c0.059,1.09,0.089,1.817,0.089,2.182v3.177
				h-1.294v-6.83h1.971l1.617,5.223h0.028l1.715-5.223h1.971v6.83h-1.35v-3.233c0-0.153,0.003-0.329,0.007-0.528
				c0.005-0.199,0.026-0.729,0.063-1.588h-0.042l-1.762,5.349H112.108z"/>
			<path id="XMLID_702_" style="fill:#7559A6;" d="M125.827,224.214c0,0.735-0.229,1.297-0.689,1.687
				c-0.46,0.389-1.113,0.584-1.96,0.584h-0.621v2.429h-1.448v-6.83h2.182c0.828,0,1.458,0.178,1.89,0.535
				C125.611,222.975,125.827,223.507,125.827,224.214z M122.557,225.297h0.477c0.445,0,0.778-0.088,1-0.264
				c0.221-0.176,0.331-0.432,0.331-0.769c0-0.339-0.092-0.59-0.278-0.752c-0.185-0.162-0.476-0.243-0.871-0.243h-0.659V225.297z"/>
			<path id="XMLID_705_" style="fill:#7559A6;" d="M134.168,228.914l-0.495-1.626h-2.49l-0.495,1.626h-1.561l2.411-6.858h1.771
				l2.421,6.858H134.168z M133.327,226.073c-0.458-1.473-0.716-2.307-0.773-2.499c-0.058-0.193-0.099-0.346-0.124-0.458
				c-0.103,0.399-0.397,1.385-0.883,2.958H133.327z"/>
			<path id="XMLID_708_" style="fill:#7559A6;" d="M145.518,228.914h-1.842l-2.971-5.167h-0.042c0.06,0.913,0.089,1.563,0.089,1.953
				v3.214h-1.294v-6.83h1.827l2.966,5.116h0.032c-0.046-0.888-0.069-1.516-0.069-1.883v-3.233h1.304V228.914z"/>
			<path id="XMLID_710_" style="fill:#7559A6;" d="M152.233,224.896l1.425-2.813h1.56l-2.267,4.172v2.658h-1.438v-2.612
				l-2.266-4.218h1.569L152.233,224.896z"/>
			<path id="XMLID_712_" style="fill:#7559A6;" d="M170.364,228.914h-1.842l-2.971-5.167h-0.042c0.06,0.913,0.089,1.563,0.089,1.953
				v3.214h-1.294v-6.83h1.827l2.966,5.116h0.032c-0.046-0.888-0.069-1.516-0.069-1.883v-3.233h1.304V228.914z"/>
			<path id="XMLID_714_" style="fill:#7559A6;" d="M179.134,228.914l-0.495-1.626h-2.49l-0.495,1.626h-1.561l2.411-6.858h1.77
				l2.421,6.858H179.134z M178.294,226.073c-0.458-1.473-0.716-2.307-0.773-2.499c-0.058-0.193-0.099-0.346-0.123-0.458
				c-0.104,0.399-0.398,1.385-0.884,2.958H178.294z"/>
			<path id="XMLID_717_" style="fill:#7559A6;" d="M187.317,228.914l-1.645-5.358h-0.043c0.06,1.09,0.09,1.817,0.09,2.182v3.177
				h-1.295v-6.83h1.972l1.616,5.223h0.028l1.715-5.223h1.972v6.83h-1.351v-3.233c0-0.153,0.003-0.329,0.007-0.528
				c0.005-0.199,0.025-0.729,0.063-1.588h-0.042l-1.762,5.349H187.317z"/>
			<path id="XMLID_719_" style="fill:#7559A6;" d="M200.251,228.914h-3.934v-6.83h3.934v1.186h-2.485v1.5h2.312v1.186h-2.312v1.762
				h2.485V228.914z"/>
		</g>
	</g>
	<g id="XMLID_721_">
		<g id="XMLID_722_">
			<path id="XMLID_723_" style="fill:#C5519E;" d="M94.711,237.151h-0.592v-2.299h-0.758v-0.492h2.108v0.492h-0.758V237.151z"/>
			<path id="XMLID_725_" style="fill:#C5519E;" d="M101.517,237.151l-0.203-0.665h-1.018l-0.202,0.665h-0.638l0.985-2.803h0.723
				l0.989,2.803H101.517z M101.174,235.991c-0.187-0.602-0.293-0.942-0.316-1.021c-0.023-0.079-0.04-0.141-0.051-0.187
				c-0.042,0.163-0.162,0.565-0.361,1.208H101.174z"/>
			<path id="XMLID_728_" style="fill:#C5519E;" d="M107.475,235.584h1.107v1.447c-0.179,0.059-0.348,0.1-0.507,0.123
				c-0.158,0.023-0.32,0.035-0.486,0.035c-0.421,0-0.743-0.124-0.965-0.371c-0.222-0.247-0.333-0.603-0.333-1.066
				c0-0.451,0.129-0.802,0.387-1.054c0.258-0.252,0.615-0.378,1.072-0.378c0.286,0,0.563,0.058,0.828,0.172l-0.196,0.474
				c-0.204-0.101-0.415-0.153-0.636-0.153c-0.256,0-0.461,0.086-0.615,0.258c-0.154,0.172-0.231,0.403-0.231,0.693
				c0,0.303,0.062,0.535,0.186,0.694s0.304,0.239,0.541,0.239c0.124,0,0.249-0.013,0.377-0.038v-0.582h-0.529V235.584z"/>
			<path id="XMLID_730_" style="fill:#C5519E;" d="M113.157,237.151v-2.791h0.592v2.302h1.132v0.489H113.157z"/>
			<path id="XMLID_732_" style="fill:#C5519E;" d="M119.276,237.151v-2.791h0.592v2.791H119.276z"/>
			<path id="XMLID_734_" style="fill:#C5519E;" d="M126.957,237.151h-0.752l-1.214-2.111h-0.017
				c0.024,0.373,0.037,0.639,0.037,0.798v1.313h-0.529v-2.791h0.747l1.212,2.09h0.013c-0.019-0.363-0.028-0.619-0.028-0.77v-1.321
				h0.533V237.151z"/>
			<path id="XMLID_736_" style="fill:#C5519E;" d="M133.177,237.151h-1.608v-2.791h1.608v0.485h-1.016v0.613h0.945v0.485h-0.945
				v0.72h1.016V237.151z"/>
			<path id="XMLID_738_" style="fill:#C5519E;" d="M143.655,235.584h1.107v1.447c-0.18,0.059-0.349,0.1-0.507,0.123
				c-0.158,0.023-0.32,0.035-0.486,0.035c-0.421,0-0.743-0.124-0.965-0.371c-0.222-0.247-0.333-0.603-0.333-1.066
				c0-0.451,0.129-0.802,0.387-1.054c0.258-0.252,0.615-0.378,1.072-0.378c0.286,0,0.563,0.058,0.828,0.172l-0.196,0.474
				c-0.204-0.101-0.416-0.153-0.636-0.153c-0.256,0-0.461,0.086-0.615,0.258c-0.154,0.172-0.23,0.403-0.23,0.693
				c0,0.303,0.062,0.535,0.186,0.694c0.124,0.16,0.305,0.239,0.541,0.239c0.124,0,0.249-0.013,0.377-0.038v-0.582h-0.529V235.584z"
				/>
			<path id="XMLID_740_" style="fill:#C5519E;" d="M151.87,235.752c0,0.462-0.114,0.817-0.344,1.066
				c-0.229,0.248-0.558,0.372-0.984,0.372c-0.428,0-0.757-0.124-0.985-0.372c-0.23-0.249-0.344-0.605-0.344-1.069
				c0-0.464,0.114-0.819,0.345-1.064c0.23-0.245,0.559-0.367,0.987-0.367c0.43,0,0.758,0.124,0.984,0.37
				C151.757,234.934,151.87,235.289,151.87,235.752z M149.833,235.752c0,0.312,0.06,0.547,0.178,0.705
				c0.118,0.158,0.295,0.237,0.531,0.237c0.472,0,0.708-0.314,0.708-0.941c0-0.629-0.235-0.943-0.705-0.943
				c-0.235,0-0.412,0.08-0.532,0.238C149.893,235.205,149.833,235.44,149.833,235.752z"/>
			<path id="XMLID_743_" style="fill:#C5519E;" d="M157.967,237.151h-1.608v-2.791h1.608v0.485h-1.016v0.613h0.944v0.485h-0.944
				v0.72h1.016V237.151z"/>
			<path id="XMLID_745_" style="fill:#C5519E;" d="M164.106,236.376c0,0.252-0.091,0.45-0.272,0.595
				c-0.182,0.145-0.434,0.218-0.757,0.218c-0.298,0-0.561-0.056-0.79-0.168v-0.55c0.188,0.084,0.348,0.143,0.477,0.178
				c0.131,0.034,0.25,0.051,0.358,0.051c0.13,0,0.23-0.025,0.299-0.074c0.069-0.05,0.104-0.123,0.104-0.222
				c0-0.055-0.015-0.104-0.046-0.146c-0.03-0.042-0.075-0.083-0.134-0.123c-0.06-0.04-0.181-0.103-0.362-0.189
				c-0.171-0.08-0.299-0.157-0.384-0.231c-0.085-0.074-0.153-0.16-0.204-0.258c-0.051-0.098-0.076-0.212-0.076-0.344
				c0-0.247,0.083-0.441,0.251-0.583c0.167-0.141,0.398-0.212,0.693-0.212c0.146,0,0.284,0.018,0.416,0.052
				c0.132,0.034,0.27,0.083,0.413,0.145l-0.191,0.46c-0.148-0.061-0.271-0.104-0.369-0.128c-0.098-0.024-0.193-0.037-0.287-0.037
				c-0.112,0-0.198,0.026-0.258,0.079c-0.06,0.052-0.09,0.12-0.09,0.204c0,0.052,0.012,0.098,0.036,0.137
				c0.024,0.039,0.063,0.076,0.116,0.112c0.053,0.036,0.178,0.102,0.375,0.196c0.261,0.124,0.439,0.25,0.536,0.375
				C164.057,236.041,164.106,236.194,164.106,236.376z"/>
			<path id="XMLID_747_" style="fill:#C5519E;" d="M175.735,237.151h-0.591v-1.204h-1.104v1.204h-0.593v-2.791h0.593v1.094h1.104
				v-1.094h0.591V237.151z"/>
			<path id="XMLID_749_" style="fill:#C5519E;" d="M181.957,237.151h-1.608v-2.791h1.608v0.485h-1.016v0.613h0.944v0.485h-0.944
				v0.72h1.016V237.151z"/>
			<path id="XMLID_751_" style="fill:#C5519E;" d="M187.041,236.08v1.071h-0.592v-2.791h0.813c0.379,0,0.66,0.069,0.842,0.207
				c0.182,0.138,0.273,0.348,0.273,0.629c0,0.164-0.046,0.311-0.136,0.438c-0.091,0.128-0.219,0.228-0.384,0.3
				c0.42,0.628,0.693,1.033,0.82,1.216h-0.656l-0.666-1.071H187.041z M187.041,235.599h0.191c0.186,0,0.325-0.031,0.414-0.093
				c0.089-0.063,0.134-0.161,0.134-0.294c0-0.132-0.046-0.226-0.137-0.282c-0.091-0.056-0.232-0.084-0.423-0.084h-0.18V235.599z"/>
			<path id="XMLID_754_" style="fill:#C5519E;" d="M194.548,237.151h-1.607v-2.791h1.607v0.485h-1.016v0.613h0.945v0.485h-0.945
				v0.72h1.016V237.151z"/>
		</g>
	</g>
	
		<radialGradient id="XMLID_00000034055943861862610070000004173941015093834368_" cx="-35.6254" cy="901.0381" r="7.9089" gradientTransform="matrix(15.4444 0 0 1.8391 697.4928 -1466.597)" gradientUnits="userSpaceOnUse">
		<stop  offset="0" style="stop-color:#000000"/>
		<stop  offset="0.0268" style="stop-color:#151515"/>
		<stop  offset="0.0957" style="stop-color:#464646"/>
		<stop  offset="0.1701" style="stop-color:#727272"/>
		<stop  offset="0.2484" style="stop-color:#989898"/>
		<stop  offset="0.3316" style="stop-color:#B8B8B8"/>
		<stop  offset="0.4212" style="stop-color:#D2D2D2"/>
		<stop  offset="0.5196" style="stop-color:#E6E6E6"/>
		<stop  offset="0.6313" style="stop-color:#F4F4F4"/>
		<stop  offset="0.7678" style="stop-color:#FDFDFD"/>
		<stop  offset="1" style="stop-color:#FFFFFF"/>
	</radialGradient>
	<path id="XMLID_3412_" style="opacity:0.2;fill:url(#XMLID_00000034055943861862610070000004173941015093834368_);" d="
		M269.438,190.504c0,8.032-54.691,14.543-122.157,14.543c-67.467,0-122.159-6.511-122.159-14.543
		c0-8.035,54.692-14.546,122.159-14.546C214.748,175.958,269.438,182.468,269.438,190.504z"/>
</g>
</svg>
