<svg width="1030" height="607" viewBox="0 0 1030 607" fill="none" xmlns="http://www.w3.org/2000/svg">
<path d="M347.5 271V159L392.52 118M680 19.5L606 88.5L515.5 6L392.52 118M680 19.5H637M680 19.5L680.5 61.5M585.5 177L656.5 111V315M612.5 180V316M572.5 243.5V316M528.5 279V316M392.52 118V261M516 136.5H550V170.25M516 136.5H482V170.25M516 136.5V204M516 204H482V170.25M516 204H550V170.25M550 170.25H482M668.5 344H646.5M434.5 344H460.5M460.5 344V356V331.5M460.5 344H599M599 344V385H618.5V369.5M599 344H646.5M646.5 344V385H635" stroke="#0284C7" style="stroke:#0284C7;stroke:color(display-p3 0.0078 0.5176 0.7804);stroke-opacity:1;" stroke-width="8"/>
<circle cx="391" cy="342.5" r="42" stroke="#0284C7" style="stroke:#0284C7;stroke:color(display-p3 0.0078 0.5176 0.7804);stroke-opacity:1;" stroke-width="8"/>
<path d="M0 385H390.5M1026.5 385H648" stroke="#0284C7" style="stroke:#0284C7;stroke:color(display-p3 0.0078 0.5176 0.7804);stroke-opacity:1;" stroke-width="8"/>
<path d="M0.749001 518V428.4H21.485V518H0.749001ZM42.749 518V428.4H81.533C89.5543 428.4 96.4663 429.723 102.269 432.368C108.072 434.928 112.552 438.64 115.709 443.504C118.866 448.368 120.445 454.171 120.445 460.912C120.445 467.568 118.866 473.328 115.709 478.192C112.552 482.971 108.072 486.64 102.269 489.2C96.4663 491.76 89.5543 493.04 81.533 493.04H54.269L63.485 483.952V518H42.749ZM99.709 518L77.309 485.488H99.453L122.109 518H99.709ZM63.485 486.256L54.269 476.528H80.381C86.781 476.528 91.5597 475.163 94.717 472.432C97.8743 469.616 99.453 465.776 99.453 460.912C99.453 455.963 97.8743 452.123 94.717 449.392C91.5597 446.661 86.781 445.296 80.381 445.296H54.269L63.485 435.44V486.256ZM136.874 518V428.4H154.026L192.17 491.632H183.082L220.586 428.4H237.61L237.866 518H218.41L218.282 458.224H221.866L191.914 508.528H182.57L151.978 458.224H156.33V518H136.874ZM295.374 518V428.4H334.158C342.179 428.4 349.091 429.723 354.894 432.368C360.697 434.928 365.177 438.64 368.334 443.504C371.491 448.368 373.07 454.171 373.07 460.912C373.07 467.568 371.491 473.328 368.334 478.192C365.177 482.971 360.697 486.64 354.894 489.2C349.091 491.76 342.179 493.04 334.158 493.04H306.894L316.11 483.952V518H295.374ZM352.334 518L329.934 485.488H352.078L374.734 518H352.334ZM316.11 486.256L306.894 476.528H333.006C339.406 476.528 344.185 475.163 347.342 472.432C350.499 469.616 352.078 465.776 352.078 460.912C352.078 455.963 350.499 452.123 347.342 449.392C344.185 446.661 339.406 445.296 333.006 445.296H306.894L316.11 435.44V486.256ZM422.267 519.024C414.416 519.024 407.504 517.488 401.531 514.416C395.643 511.344 391.078 507.163 387.835 501.872C384.592 496.496 382.971 490.395 382.971 483.568C382.971 476.656 384.55 470.555 387.707 465.264C390.95 459.888 395.344 455.707 400.891 452.72C406.438 449.648 412.71 448.112 419.707 448.112C426.448 448.112 432.507 449.563 437.883 452.464C443.344 455.28 447.654 459.376 450.811 464.752C453.968 470.043 455.547 476.4 455.547 483.824C455.547 484.592 455.504 485.488 455.419 486.512C455.334 487.451 455.248 488.347 455.163 489.2H399.227V477.552H444.667L436.987 481.008C436.987 477.424 436.262 474.309 434.811 471.664C433.36 469.019 431.355 466.971 428.795 465.52C426.235 463.984 423.248 463.216 419.835 463.216C416.422 463.216 413.392 463.984 410.747 465.52C408.187 466.971 406.182 469.061 404.731 471.792C403.28 474.437 402.555 477.595 402.555 481.264V484.336C402.555 488.091 403.366 491.419 404.987 494.32C406.694 497.136 409.04 499.312 412.027 500.848C415.099 502.299 418.683 503.024 422.779 503.024C426.448 503.024 429.648 502.469 432.379 501.36C435.195 500.251 437.755 498.587 440.059 496.368L450.683 507.888C447.526 511.472 443.558 514.245 438.779 516.208C434 518.085 428.496 519.024 422.267 519.024ZM509.206 518V504.56L507.926 501.616V477.552C507.926 473.285 506.603 469.957 503.958 467.568C501.398 465.179 497.43 463.984 492.054 463.984C488.385 463.984 484.758 464.581 481.174 465.776C477.675 466.885 474.689 468.421 472.214 470.384L465.046 456.432C468.801 453.787 473.323 451.739 478.614 450.288C483.905 448.837 489.281 448.112 494.742 448.112C505.238 448.112 513.387 450.587 519.19 455.536C524.993 460.485 527.894 468.208 527.894 478.704V518H509.206ZM488.214 519.024C482.838 519.024 478.23 518.128 474.39 516.336C470.55 514.459 467.606 511.941 465.558 508.784C463.51 505.627 462.486 502.085 462.486 498.16C462.486 494.064 463.467 490.48 465.43 487.408C467.478 484.336 470.678 481.947 475.03 480.24C479.382 478.448 485.057 477.552 492.054 477.552H510.358V489.2H494.23C489.537 489.2 486.294 489.968 484.502 491.504C482.795 493.04 481.942 494.96 481.942 497.264C481.942 499.824 482.923 501.872 484.886 503.408C486.934 504.859 489.707 505.584 493.206 505.584C496.534 505.584 499.521 504.816 502.166 503.28C504.811 501.659 506.731 499.312 507.926 496.24L510.998 505.456C509.547 509.893 506.902 513.264 503.062 515.568C499.222 517.872 494.273 519.024 488.214 519.024ZM545.966 518V423.024H565.934V518H545.966ZM641.196 464.496H684.332V480.624H641.196V464.496ZM642.732 501.36H691.5V518H622.124V428.4H689.836V445.04H642.732V501.36ZM729.384 519.024C723.496 519.024 717.821 518.341 712.36 516.976C706.984 515.525 702.717 513.733 699.56 511.6L706.216 497.264C709.373 499.227 713.085 500.848 717.352 502.128C721.704 503.323 725.971 503.92 730.152 503.92C734.76 503.92 738.003 503.365 739.88 502.256C741.843 501.147 742.824 499.611 742.824 497.648C742.824 496.027 742.056 494.832 740.52 494.064C739.069 493.211 737.107 492.571 734.632 492.144C732.157 491.717 729.427 491.291 726.44 490.864C723.539 490.437 720.595 489.883 717.608 489.2C714.621 488.432 711.891 487.323 709.416 485.872C706.941 484.421 704.936 482.459 703.4 479.984C701.949 477.509 701.224 474.309 701.224 470.384C701.224 466.032 702.461 462.192 704.936 458.864C707.496 455.536 711.165 452.933 715.944 451.056C720.723 449.093 726.44 448.112 733.096 448.112C737.789 448.112 742.568 448.624 747.432 449.648C752.296 450.672 756.349 452.165 759.592 454.128L752.936 468.336C749.608 466.373 746.237 465.051 742.824 464.368C739.496 463.6 736.253 463.216 733.096 463.216C728.659 463.216 725.416 463.813 723.368 465.008C721.32 466.203 720.296 467.739 720.296 469.616C720.296 471.323 721.021 472.603 722.472 473.456C724.008 474.309 726.013 474.992 728.488 475.504C730.963 476.016 733.651 476.485 736.552 476.912C739.539 477.253 742.525 477.808 745.512 478.576C748.499 479.344 751.187 480.453 753.576 481.904C756.051 483.269 758.056 485.189 759.592 487.664C761.128 490.053 761.896 493.211 761.896 497.136C761.896 501.403 760.616 505.2 758.056 508.528C755.496 511.771 751.784 514.331 746.92 516.208C742.141 518.085 736.296 519.024 729.384 519.024ZM802.376 519.024C794.269 519.024 787.955 516.976 783.432 512.88C778.909 508.699 776.648 502.512 776.648 494.32V433.904H796.616V494.064C796.616 496.965 797.384 499.227 798.92 500.848C800.456 502.384 802.547 503.152 805.192 503.152C808.349 503.152 811.037 502.299 813.256 500.592L818.632 514.672C816.584 516.123 814.109 517.232 811.208 518C808.392 518.683 805.448 519.024 802.376 519.024ZM766.024 466.032V450.672H813.768V466.032H766.024ZM872.081 518V504.56L870.801 501.616V477.552C870.801 473.285 869.478 469.957 866.833 467.568C864.273 465.179 860.305 463.984 854.929 463.984C851.26 463.984 847.633 464.581 844.049 465.776C840.55 466.885 837.564 468.421 835.089 470.384L827.921 456.432C831.676 453.787 836.198 451.739 841.489 450.288C846.78 448.837 852.156 448.112 857.617 448.112C868.113 448.112 876.262 450.587 882.065 455.536C887.868 460.485 890.769 468.208 890.769 478.704V518H872.081ZM851.089 519.024C845.713 519.024 841.105 518.128 837.265 516.336C833.425 514.459 830.481 511.941 828.433 508.784C826.385 505.627 825.361 502.085 825.361 498.16C825.361 494.064 826.342 490.48 828.305 487.408C830.353 484.336 833.553 481.947 837.905 480.24C842.257 478.448 847.932 477.552 854.929 477.552H873.233V489.2H857.105C852.412 489.2 849.169 489.968 847.377 491.504C845.67 493.04 844.817 494.96 844.817 497.264C844.817 499.824 845.798 501.872 847.761 503.408C849.809 504.859 852.582 505.584 856.081 505.584C859.409 505.584 862.396 504.816 865.041 503.28C867.686 501.659 869.606 499.312 870.801 496.24L873.873 505.456C872.422 509.893 869.777 513.264 865.937 515.568C862.097 517.872 857.148 519.024 851.089 519.024ZM937.001 519.024C928.894 519.024 922.58 516.976 918.057 512.88C913.534 508.699 911.273 502.512 911.273 494.32V433.904H931.241V494.064C931.241 496.965 932.009 499.227 933.545 500.848C935.081 502.384 937.172 503.152 939.817 503.152C942.974 503.152 945.662 502.299 947.881 500.592L953.257 514.672C951.209 516.123 948.734 517.232 945.833 518C943.017 518.683 940.073 519.024 937.001 519.024ZM900.649 466.032V450.672H948.393V466.032H900.649ZM996.517 519.024C988.666 519.024 981.754 517.488 975.781 514.416C969.893 511.344 965.328 507.163 962.085 501.872C958.842 496.496 957.221 490.395 957.221 483.568C957.221 476.656 958.8 470.555 961.957 465.264C965.2 459.888 969.594 455.707 975.141 452.72C980.688 449.648 986.96 448.112 993.957 448.112C1000.7 448.112 1006.76 449.563 1012.13 452.464C1017.59 455.28 1021.9 459.376 1025.06 464.752C1028.22 470.043 1029.8 476.4 1029.8 483.824C1029.8 484.592 1029.75 485.488 1029.67 486.512C1029.58 487.451 1029.5 488.347 1029.41 489.2H973.477V477.552H1018.92L1011.24 481.008C1011.24 477.424 1010.51 474.309 1009.06 471.664C1007.61 469.019 1005.61 466.971 1003.05 465.52C1000.49 463.984 997.498 463.216 994.085 463.216C990.672 463.216 987.642 463.984 984.997 465.52C982.437 466.971 980.432 469.061 978.981 471.792C977.53 474.437 976.805 477.595 976.805 481.264V484.336C976.805 488.091 977.616 491.419 979.237 494.32C980.944 497.136 983.29 499.312 986.277 500.848C989.349 502.299 992.933 503.024 997.029 503.024C1000.7 503.024 1003.9 502.469 1006.63 501.36C1009.45 500.251 1012.01 498.587 1014.31 496.368L1024.93 507.888C1021.78 511.472 1017.81 514.245 1013.03 516.208C1008.25 518.085 1002.75 519.024 996.517 519.024Z" fill="white" style="fill:white;fill-opacity:1;"/>
<path d="M197.169 568.12V596H193.529V568.12H197.169ZM214.053 573.68C216.72 573.68 218.88 574.493 220.533 576.12C222.186 577.72 223.013 580.04 223.013 583.08V596H219.413V583.6C219.413 581.413 218.866 579.747 217.773 578.6C216.68 577.427 215.186 576.84 213.293 576.84C211.373 576.84 209.84 577.44 208.693 578.64C207.573 579.84 207.013 581.587 207.013 583.88V596H203.373V574.08H207.013V577.2C207.733 576.08 208.706 575.213 209.933 574.6C211.186 573.987 212.56 573.68 214.053 573.68ZM237.119 592.64L243.919 574.08H247.799L239.199 596H234.959L226.359 574.08H230.279L237.119 592.64ZM271.381 584.2C271.381 584.893 271.341 585.627 271.261 586.4H253.741C253.874 588.56 254.607 590.253 255.941 591.48C257.301 592.68 258.941 593.28 260.861 593.28C262.434 593.28 263.741 592.92 264.781 592.2C265.847 591.453 266.594 590.467 267.021 589.24H270.941C270.354 591.347 269.181 593.067 267.421 594.4C265.661 595.707 263.474 596.36 260.861 596.36C258.781 596.36 256.914 595.893 255.261 594.96C253.634 594.027 252.354 592.707 251.421 591C250.487 589.267 250.021 587.267 250.021 585C250.021 582.733 250.474 580.747 251.381 579.04C252.287 577.333 253.554 576.027 255.181 575.12C256.834 574.187 258.727 573.72 260.861 573.72C262.941 573.72 264.781 574.173 266.381 575.08C267.981 575.987 269.207 577.24 270.061 578.84C270.941 580.413 271.381 582.2 271.381 584.2ZM267.621 583.44C267.621 582.053 267.314 580.867 266.701 579.88C266.087 578.867 265.247 578.107 264.181 577.6C263.141 577.067 261.981 576.8 260.701 576.8C258.861 576.8 257.287 577.387 255.981 578.56C254.701 579.733 253.967 581.36 253.781 583.44H267.621ZM283.945 596.36C282.265 596.36 280.759 596.08 279.425 595.52C278.092 594.933 277.039 594.133 276.265 593.12C275.492 592.08 275.065 590.893 274.985 589.56H278.745C278.852 590.653 279.359 591.547 280.265 592.24C281.199 592.933 282.412 593.28 283.905 593.28C285.292 593.28 286.385 592.973 287.185 592.36C287.985 591.747 288.385 590.973 288.385 590.04C288.385 589.08 287.959 588.373 287.105 587.92C286.252 587.44 284.932 586.973 283.145 586.52C281.519 586.093 280.185 585.667 279.145 585.24C278.132 584.787 277.252 584.133 276.505 583.28C275.785 582.4 275.425 581.253 275.425 579.84C275.425 578.72 275.759 577.693 276.425 576.76C277.092 575.827 278.039 575.093 279.265 574.56C280.492 574 281.892 573.72 283.465 573.72C285.892 573.72 287.852 574.333 289.345 575.56C290.839 576.787 291.639 578.467 291.745 580.6H288.105C288.025 579.453 287.559 578.533 286.705 577.84C285.879 577.147 284.759 576.8 283.345 576.8C282.039 576.8 280.999 577.08 280.225 577.64C279.452 578.2 279.065 578.933 279.065 579.84C279.065 580.56 279.292 581.16 279.745 581.64C280.225 582.093 280.812 582.467 281.505 582.76C282.225 583.027 283.212 583.333 284.465 583.68C286.039 584.107 287.319 584.533 288.305 584.96C289.292 585.36 290.132 585.973 290.825 586.8C291.545 587.627 291.919 588.707 291.945 590.04C291.945 591.24 291.612 592.32 290.945 593.28C290.279 594.24 289.332 595 288.105 595.56C286.905 596.093 285.519 596.36 283.945 596.36ZM301.524 577.08V590C301.524 591.067 301.751 591.827 302.204 592.28C302.657 592.707 303.444 592.92 304.564 592.92H307.244V596H303.964C301.937 596 300.417 595.533 299.404 594.6C298.391 593.667 297.884 592.133 297.884 590V577.08H295.044V574.08H297.884V568.56H301.524V574.08H307.244V577.08H301.524ZM338.014 573.68C339.721 573.68 341.241 574.04 342.574 574.76C343.908 575.453 344.961 576.507 345.734 577.92C346.508 579.333 346.894 581.053 346.894 583.08V596H343.294V583.6C343.294 581.413 342.748 579.747 341.654 578.6C340.588 577.427 339.134 576.84 337.294 576.84C335.401 576.84 333.894 577.453 332.774 578.68C331.654 579.88 331.094 581.627 331.094 583.92V596H327.494V583.6C327.494 581.413 326.948 579.747 325.854 578.6C324.788 577.427 323.334 576.84 321.494 576.84C319.601 576.84 318.094 577.453 316.974 578.68C315.854 579.88 315.294 581.627 315.294 583.92V596H311.654V574.08H315.294V577.24C316.014 576.093 316.974 575.213 318.174 574.6C319.401 573.987 320.748 573.68 322.214 573.68C324.054 573.68 325.681 574.093 327.094 574.92C328.508 575.747 329.561 576.96 330.254 578.56C330.868 577.013 331.881 575.813 333.294 574.96C334.708 574.107 336.281 573.68 338.014 573.68ZM372.865 584.2C372.865 584.893 372.825 585.627 372.745 586.4H355.225C355.358 588.56 356.092 590.253 357.425 591.48C358.785 592.68 360.425 593.28 362.345 593.28C363.918 593.28 365.225 592.92 366.265 592.2C367.332 591.453 368.078 590.467 368.505 589.24H372.425C371.838 591.347 370.665 593.067 368.905 594.4C367.145 595.707 364.958 596.36 362.345 596.36C360.265 596.36 358.398 595.893 356.745 594.96C355.118 594.027 353.838 592.707 352.905 591C351.972 589.267 351.505 587.267 351.505 585C351.505 582.733 351.958 580.747 352.865 579.04C353.772 577.333 355.038 576.027 356.665 575.12C358.318 574.187 360.212 573.72 362.345 573.72C364.425 573.72 366.265 574.173 367.865 575.08C369.465 575.987 370.692 577.24 371.545 578.84C372.425 580.413 372.865 582.2 372.865 584.2ZM369.105 583.44C369.105 582.053 368.798 580.867 368.185 579.88C367.572 578.867 366.732 578.107 365.665 577.6C364.625 577.067 363.465 576.8 362.185 576.8C360.345 576.8 358.772 577.387 357.465 578.56C356.185 579.733 355.452 581.36 355.265 583.44H369.105ZM388.35 573.68C391.017 573.68 393.177 574.493 394.83 576.12C396.483 577.72 397.31 580.04 397.31 583.08V596H393.71V583.6C393.71 581.413 393.163 579.747 392.07 578.6C390.977 577.427 389.483 576.84 387.59 576.84C385.67 576.84 384.137 577.44 382.99 578.64C381.87 579.84 381.31 581.587 381.31 583.88V596H377.67V574.08H381.31V577.2C382.03 576.08 383.003 575.213 384.23 574.6C385.483 573.987 386.857 573.68 388.35 573.68ZM407.696 577.08V590C407.696 591.067 407.922 591.827 408.376 592.28C408.829 592.707 409.616 592.92 410.736 592.92H413.416V596H410.136C408.109 596 406.589 595.533 405.576 594.6C404.562 593.667 404.056 592.133 404.056 590V577.08H401.216V574.08H404.056V568.56H407.696V574.08H413.416V577.08H407.696ZM449.89 596L446.25 592.32C444.89 593.733 443.437 594.787 441.89 595.48C440.343 596.147 438.597 596.48 436.65 596.48C434.73 596.48 433.023 596.133 431.53 595.44C430.063 594.747 428.917 593.76 428.09 592.48C427.29 591.2 426.89 589.707 426.89 588C426.89 586.053 427.437 584.347 428.53 582.88C429.65 581.387 431.29 580.213 433.45 579.36C432.597 578.347 431.983 577.413 431.61 576.56C431.237 575.707 431.05 574.773 431.05 573.76C431.05 572.587 431.343 571.533 431.93 570.6C432.543 569.64 433.41 568.893 434.53 568.36C435.65 567.827 436.943 567.56 438.41 567.56C439.85 567.56 441.103 567.84 442.17 568.4C443.237 568.96 444.037 569.747 444.57 570.76C445.103 571.747 445.343 572.853 445.29 574.08H441.65C441.677 572.987 441.37 572.133 440.73 571.52C440.09 570.88 439.263 570.56 438.25 570.56C437.183 570.56 436.317 570.867 435.65 571.48C435.01 572.067 434.69 572.827 434.69 573.76C434.69 574.56 434.903 575.333 435.33 576.08C435.783 576.827 436.53 577.747 437.57 578.84L445.89 587.2L446.61 586.08L449.33 581.52H453.25L449.97 587.2C449.517 588 448.983 588.84 448.37 589.72L454.65 596H449.89ZM436.65 593.36C438.09 593.36 439.383 593.08 440.53 592.52C441.703 591.96 442.81 591.093 443.85 589.92L435.65 581.68C432.237 582.987 430.53 585.053 430.53 587.88C430.53 589.453 431.09 590.76 432.21 591.8C433.357 592.84 434.837 593.36 436.65 593.36ZM497.005 568.32V596H493.365V575.36L484.165 596H481.605L472.365 575.32V596H468.725V568.32H472.645L482.885 591.2L493.125 568.32H497.005ZM501.818 584.96C501.818 582.72 502.271 580.76 503.178 579.08C504.084 577.373 505.324 576.053 506.898 575.12C508.498 574.187 510.271 573.72 512.218 573.72C514.138 573.72 515.804 574.133 517.218 574.96C518.631 575.787 519.684 576.827 520.378 578.08V574.08H524.058V596H520.378V591.92C519.658 593.2 518.578 594.267 517.138 595.12C515.724 595.947 514.071 596.36 512.178 596.36C510.231 596.36 508.471 595.88 506.898 594.92C505.324 593.96 504.084 592.613 503.178 590.88C502.271 589.147 501.818 587.173 501.818 584.96ZM520.378 585C520.378 583.347 520.044 581.907 519.378 580.68C518.711 579.453 517.804 578.52 516.658 577.88C515.538 577.213 514.298 576.88 512.938 576.88C511.578 576.88 510.338 577.2 509.218 577.84C508.098 578.48 507.204 579.413 506.538 580.64C505.871 581.867 505.538 583.307 505.538 584.96C505.538 586.64 505.871 588.107 506.538 589.36C507.204 590.587 508.098 591.533 509.218 592.2C510.338 592.84 511.578 593.16 512.938 593.16C514.298 593.16 515.538 592.84 516.658 592.2C517.804 591.533 518.711 590.587 519.378 589.36C520.044 588.107 520.378 586.653 520.378 585ZM540.889 573.68C543.556 573.68 545.716 574.493 547.369 576.12C549.022 577.72 549.849 580.04 549.849 583.08V596H546.249V583.6C546.249 581.413 545.702 579.747 544.609 578.6C543.516 577.427 542.022 576.84 540.129 576.84C538.209 576.84 536.676 577.44 535.529 578.64C534.409 579.84 533.849 581.587 533.849 583.88V596H530.209V574.08H533.849V577.2C534.569 576.08 535.542 575.213 536.769 574.6C538.022 573.987 539.396 573.68 540.889 573.68ZM554.435 584.96C554.435 582.72 554.888 580.76 555.795 579.08C556.702 577.373 557.942 576.053 559.515 575.12C561.115 574.187 562.888 573.72 564.835 573.72C566.755 573.72 568.422 574.133 569.835 574.96C571.248 575.787 572.302 576.827 572.995 578.08V574.08H576.675V596H572.995V591.92C572.275 593.2 571.195 594.267 569.755 595.12C568.342 595.947 566.688 596.36 564.795 596.36C562.848 596.36 561.088 595.88 559.515 594.92C557.942 593.96 556.702 592.613 555.795 590.88C554.888 589.147 554.435 587.173 554.435 584.96ZM572.995 585C572.995 583.347 572.662 581.907 571.995 580.68C571.328 579.453 570.422 578.52 569.275 577.88C568.155 577.213 566.915 576.88 565.555 576.88C564.195 576.88 562.955 577.2 561.835 577.84C560.715 578.48 559.822 579.413 559.155 580.64C558.488 581.867 558.155 583.307 558.155 584.96C558.155 586.64 558.488 588.107 559.155 589.36C559.822 590.587 560.715 591.533 561.835 592.2C562.955 592.84 564.195 593.16 565.555 593.16C566.915 593.16 568.155 592.84 569.275 592.2C570.422 591.533 571.328 590.587 571.995 589.36C572.662 588.107 572.995 586.653 572.995 585ZM591.866 573.72C593.759 573.72 595.413 574.133 596.826 574.96C598.266 575.787 599.333 576.827 600.026 578.08V574.08H603.706V596.48C603.706 598.48 603.279 600.253 602.426 601.8C601.573 603.373 600.346 604.6 598.746 605.48C597.173 606.36 595.333 606.8 593.226 606.8C590.346 606.8 587.946 606.12 586.026 604.76C584.106 603.4 582.973 601.547 582.626 599.2H586.226C586.626 600.533 587.453 601.6 588.706 602.4C589.959 603.227 591.466 603.64 593.226 603.64C595.226 603.64 596.853 603.013 598.106 601.76C599.386 600.507 600.026 598.747 600.026 596.48V591.88C599.306 593.16 598.239 594.227 596.826 595.08C595.413 595.933 593.759 596.36 591.866 596.36C589.919 596.36 588.146 595.88 586.546 594.92C584.973 593.96 583.733 592.613 582.826 590.88C581.919 589.147 581.466 587.173 581.466 584.96C581.466 582.72 581.919 580.76 582.826 579.08C583.733 577.373 584.973 576.053 586.546 575.12C588.146 574.187 589.919 573.72 591.866 573.72ZM600.026 585C600.026 583.347 599.693 581.907 599.026 580.68C598.359 579.453 597.453 578.52 596.306 577.88C595.186 577.213 593.946 576.88 592.586 576.88C591.226 576.88 589.986 577.2 588.866 577.84C587.746 578.48 586.853 579.413 586.186 580.64C585.519 581.867 585.186 583.307 585.186 584.96C585.186 586.64 585.519 588.107 586.186 589.36C586.853 590.587 587.746 591.533 588.866 592.2C589.986 592.84 591.226 593.16 592.586 593.16C593.946 593.16 595.186 592.84 596.306 592.2C597.453 591.533 598.359 590.587 599.026 589.36C599.693 588.107 600.026 586.653 600.026 585ZM629.857 584.2C629.857 584.893 629.817 585.627 629.737 586.4H612.217C612.351 588.56 613.084 590.253 614.417 591.48C615.777 592.68 617.417 593.28 619.337 593.28C620.911 593.28 622.217 592.92 623.257 592.2C624.324 591.453 625.071 590.467 625.497 589.24H629.417C628.831 591.347 627.657 593.067 625.897 594.4C624.137 595.707 621.951 596.36 619.337 596.36C617.257 596.36 615.391 595.893 613.737 594.96C612.111 594.027 610.831 592.707 609.897 591C608.964 589.267 608.497 587.267 608.497 585C608.497 582.733 608.951 580.747 609.857 579.04C610.764 577.333 612.031 576.027 613.657 575.12C615.311 574.187 617.204 573.72 619.337 573.72C621.417 573.72 623.257 574.173 624.857 575.08C626.457 575.987 627.684 577.24 628.537 578.84C629.417 580.413 629.857 582.2 629.857 584.2ZM626.097 583.44C626.097 582.053 625.791 580.867 625.177 579.88C624.564 578.867 623.724 578.107 622.657 577.6C621.617 577.067 620.457 576.8 619.177 576.8C617.337 576.8 615.764 577.387 614.457 578.56C613.177 579.733 612.444 581.36 612.257 583.44H626.097ZM661.022 573.68C662.729 573.68 664.249 574.04 665.582 574.76C666.915 575.453 667.969 576.507 668.742 577.92C669.515 579.333 669.902 581.053 669.902 583.08V596H666.302V583.6C666.302 581.413 665.755 579.747 664.662 578.6C663.595 577.427 662.142 576.84 660.302 576.84C658.409 576.84 656.902 577.453 655.782 578.68C654.662 579.88 654.102 581.627 654.102 583.92V596H650.502V583.6C650.502 581.413 649.955 579.747 648.862 578.6C647.795 577.427 646.342 576.84 644.502 576.84C642.609 576.84 641.102 577.453 639.982 578.68C638.862 579.88 638.302 581.627 638.302 583.92V596H634.662V574.08H638.302V577.24C639.022 576.093 639.982 575.213 641.182 574.6C642.409 573.987 643.755 573.68 645.222 573.68C647.062 573.68 648.689 574.093 650.102 574.92C651.515 575.747 652.569 576.96 653.262 578.56C653.875 577.013 654.889 575.813 656.302 574.96C657.715 574.107 659.289 573.68 661.022 573.68ZM695.873 584.2C695.873 584.893 695.833 585.627 695.753 586.4H678.233C678.366 588.56 679.1 590.253 680.433 591.48C681.793 592.68 683.433 593.28 685.353 593.28C686.926 593.28 688.233 592.92 689.273 592.2C690.34 591.453 691.086 590.467 691.513 589.24H695.433C694.846 591.347 693.673 593.067 691.913 594.4C690.153 595.707 687.966 596.36 685.353 596.36C683.273 596.36 681.406 595.893 679.753 594.96C678.126 594.027 676.846 592.707 675.913 591C674.98 589.267 674.513 587.267 674.513 585C674.513 582.733 674.966 580.747 675.873 579.04C676.78 577.333 678.046 576.027 679.673 575.12C681.326 574.187 683.22 573.72 685.353 573.72C687.433 573.72 689.273 574.173 690.873 575.08C692.473 575.987 693.7 577.24 694.553 578.84C695.433 580.413 695.873 582.2 695.873 584.2ZM692.113 583.44C692.113 582.053 691.806 580.867 691.193 579.88C690.58 578.867 689.74 578.107 688.673 577.6C687.633 577.067 686.473 576.8 685.193 576.8C683.353 576.8 681.78 577.387 680.473 578.56C679.193 579.733 678.46 581.36 678.273 583.44H692.113ZM711.358 573.68C714.024 573.68 716.184 574.493 717.838 576.12C719.491 577.72 720.318 580.04 720.318 583.08V596H716.718V583.6C716.718 581.413 716.171 579.747 715.078 578.6C713.984 577.427 712.491 576.84 710.598 576.84C708.678 576.84 707.144 577.44 705.998 578.64C704.878 579.84 704.318 581.587 704.318 583.88V596H700.678V574.08H704.318V577.2C705.038 576.08 706.011 575.213 707.238 574.6C708.491 573.987 709.864 573.68 711.358 573.68ZM730.704 577.08V590C730.704 591.067 730.93 591.827 731.384 592.28C731.837 592.707 732.624 592.92 733.744 592.92H736.424V596H733.144C731.117 596 729.597 595.533 728.584 594.6C727.57 593.667 727.064 592.133 727.064 590V577.08H724.224V574.08H727.064V568.56H730.704V574.08H736.424V577.08H730.704ZM767.258 568.12V571.08H755.138V580.48H764.978V583.44H755.138V596H751.498V568.12H767.258ZM773.534 570.52C772.841 570.52 772.254 570.28 771.774 569.8C771.294 569.32 771.054 568.733 771.054 568.04C771.054 567.347 771.294 566.76 771.774 566.28C772.254 565.8 772.841 565.56 773.534 565.56C774.201 565.56 774.761 565.8 775.214 566.28C775.694 566.76 775.934 567.347 775.934 568.04C775.934 568.733 775.694 569.32 775.214 569.8C774.761 570.28 774.201 570.52 773.534 570.52ZM775.294 574.08V596H771.654V574.08H775.294ZM785.138 577.64C785.778 576.387 786.685 575.413 787.858 574.72C789.058 574.027 790.511 573.68 792.218 573.68V577.44H791.258C787.178 577.44 785.138 579.653 785.138 584.08V596H781.498V574.08H785.138V577.64ZM822.78 573.68C824.487 573.68 826.007 574.04 827.34 574.76C828.673 575.453 829.727 576.507 830.5 577.92C831.273 579.333 831.66 581.053 831.66 583.08V596H828.06V583.6C828.06 581.413 827.513 579.747 826.42 578.6C825.353 577.427 823.9 576.84 822.06 576.84C820.167 576.84 818.66 577.453 817.54 578.68C816.42 579.88 815.86 581.627 815.86 583.92V596H812.26V583.6C812.26 581.413 811.713 579.747 810.62 578.6C809.553 577.427 808.1 576.84 806.26 576.84C804.367 576.84 802.86 577.453 801.74 578.68C800.62 579.88 800.06 581.627 800.06 583.92V596H796.42V574.08H800.06V577.24C800.78 576.093 801.74 575.213 802.94 574.6C804.167 573.987 805.513 573.68 806.98 573.68C808.82 573.68 810.447 574.093 811.86 574.92C813.273 575.747 814.327 576.96 815.02 578.56C815.633 577.013 816.647 575.813 818.06 574.96C819.473 574.107 821.047 573.68 822.78 573.68Z" fill="white" style="fill:white;fill-opacity:1;"/>
</svg>
