<svg xmlns="http://www.w3.org/2000/svg" version="1.1" xmlns:xlink="http://www.w3.org/1999/xlink" width="1500" height="1500" viewBox="0 0 1500 1500"><rect width="1500" height="1500" x="0" y="0" id="background" stroke="transparent" fill="#ffffff"></rect><svg xml:space="preserve" width="1000" height="1000" data-version="2" data-id="lg_PXfPYql7TfxEWihtcs" viewBox="0 0 351 257" x="250" y="250"><rect width="100%" height="100%" fill="transparent"></rect><path fill="#aaaaaa" stroke="#aaaaaa" stroke-width="2.41" d="M64.011 164.203H287.39"></path><path fill="#aaaaaa" d="M235.538 70.172c-1.514-31.824-27.07-57.383-58.894-58.895V2.273h-5.905v9.004c-31.823 1.515-57.382 27.07-58.894 58.895h-9.004v5.904h9.004c1.515 31.823 27.07 57.383 58.895 58.894v9.004h5.904v-9.004c31.823-1.511 57.383-27.07 58.894-58.894h9.004v-5.904zm-5.904 5.904c-1.5 28.567-24.423 51.49-52.99 52.99v-8.709h-5.904v8.709c-28.568-1.503-51.491-24.426-52.99-52.99h8.708v-5.904h-8.709c1.503-28.568 24.426-51.491 52.99-52.99v8.708h5.905v-8.709c28.567 1.5 51.49 24.423 52.99 52.99h-8.709v5.905z"></path><path fill="#aaaaaa" d="m136.259 71.854 3.75 4.546 7.114-5.874v35.07h17.712V81.98H185.5v23.617h17.713V70.644l6.967 5.756 3.778-4.546-38.85-32.09z"></path><path fill="#242424" d="m137.945 216.966.04-.63 2.34-.32q.45-.04.54-.58h.05v-28.44h-.05q-.09-.59-.54-.63l-2.34-.23-.04-.67 9.04-.05q0 .05.05.68l-3.06.27v29.7l3.06.18q0 .04-.05.67Z"></path><rect width="9.09" height="31.55" x="-4.54" y="-15.78" fill="none" rx="0" ry="0" transform="translate(142.99 201.7)"></rect><path fill="#242424" d="m150.545 186.096.04-.68h10.94q4.63 0 7.15 2.03 2.52 2.02 2.52 6.03 0 2.61-2 5.44-2 2.84-3.76 3.65l8.33 13.54 2.2.14q0 .04-.04.67l-4.91.05-8.55-13.86h-5.98v12.96l3.15.18q0 .04-.05.67l-9.04.05.04-.63 2.34-.32q.32-.04.5-.4v-28.8q-.14-.41-.5-.45Zm10.75 0h-4.81v16.33h7.69q2.34-2.65 3.15-4.7.81-2.05.81-3.98 0-3.78-1.75-5.72-1.76-1.93-5.09-1.93"></path><rect width="25.42" height="31.55" x="-12.71" y="-15.78" fill="none" rx="0" ry="0" transform="translate(163.75 201.7)"></rect><path fill="#242424" d="m178.125 186.096.05-.68h5.94l10.75 22.82 10.58-22.82h5.94q0 .09.04.32.05.22 0 .36l-2.38.27q-.45.04-.54.58v29.12l3.33.18q0 .04-.05.67l-9.04.05.04-.63 2.34-.32q.45-.04.54-.54v-28.44l-10.26 22.19-.9 1.8h-1.03l-11.39-24.03v28.98l5.13.27q0 .04-.04.67l-9.05.05.05-.63 2.34-.32q.45-.04.54-.58v-28.49q-.09-.54-.54-.58Z"></path><rect width="33.71" height="31.55" x="-16.86" y="-15.78" fill="none" rx="0" ry="0" transform="translate(195.48 201.7)"></rect><path fill="#aaaaaa" d="M11.085 239.246q0 2.73-1.88 3.66l2.87 6.07h-1.39l-2.7-5.67q-.68.12-1.5.12h-1.46v5.55h-1.29v-13.3h2.75q2.32 0 3.38.72 1.22.81 1.22 2.85m-6.06-2.53v5.66h1.37q1.69 0 2.54-.68.86-.69.86-2.38 0-2.16-1.98-2.5-.63-.1-1.42-.1Z"></path><rect width="8.34" height="13.3" x="-4.17" y="-6.65" fill="none" rx="0" ry="0" transform="translate(8.4 242.83)"></rect><path fill="#aaaaaa" d="M14.125 244.607q0 3.34 3.19 3.34 1.35 0 2.47-.36.29-.1.4-.15l.29 1q-.67.4-2.42.57-.49.04-1.04.04-1.6 0-2.66-.8-1.47-1.08-1.47-3.61 0-2.52 1.32-3.88 1.33-1.36 3.21-1.36t2.83 1.22q.72.96.72 2.56 0 .38-.04.8h-6.78q-.02.15-.02.32Zm3.36-4.03q-1.18 0-2.01.71-.84.71-1.16 1.83h5.53q-.1-2.11-1.64-2.45-.34-.09-.72-.09"></path><rect width="8.08" height="9.65" x="-4.04" y="-4.83" fill="none" rx="0" ry="0" transform="translate(17.43 244.72)"></rect><path fill="#aaaaaa" d="m21.705 239.476 1.39-.1 2.75 8.13 2.99-8.03 1.36-.1-3.83 9.6h-1.14Z"></path><rect width="8.49" height="9.6" x="-4.25" y="-4.8" fill="none" rx="0" ry="0" transform="translate(26.45 244.68)"></rect><path fill="#aaaaaa" d="M33.235 239.377v9.6h-1.23v-9.5Zm-.66-2.45h-.19q-.19 0-.39-.25-.2-.24-.2-.62t.22-.62q.22-.24.6-.24t.61.24q.24.24.24.65 0 .42-.26.63-.25.21-.63.21"></path><rect width="1.67" height="13.78" x="-.83" y="-6.89" fill="none" rx="0" ry="0" transform="translate(33.13 242.59)"></rect><path fill="#aaaaaa" d="m35.105 239.476 1.38-.1 2.76 8.13 2.98-8.03 1.37-.1-3.84 9.6h-1.14Z"></path><rect width="8.49" height="9.6" x="-4.25" y="-4.8" fill="none" rx="0" ry="0" transform="translate(39.85 244.68)"></rect><path fill="#aaaaaa" d="M46.635 239.377v9.6h-1.24v-9.5Zm-.67-2.45h-.19q-.19 0-.39-.25-.2-.24-.2-.62t.22-.62q.22-.24.6-.24t.62.24q.24.24.24.65 0 .42-.26.63-.26.21-.64.21"></path><rect width="1.68" height="13.78" x="-.84" y="-6.89" fill="none" rx="0" ry="0" transform="translate(46.52 242.59)"></rect><path fill="#aaaaaa" d="M50.375 240.516q1.43-1.04 2.7-1.1 1.16 0 1.79.28.62.29 1.03.81.41.52.41 1.47v7h-1.24v-6.67q0-.71-.3-1.09-.61-.7-1.86-.7-1.2.06-2.53.78v7.68h-1.23v-9.5l1.23-.1Z"></path><rect width="7.16" height="9.6" x="-3.58" y="-4.8" fill="none" rx="0" ry="0" transform="translate(53.23 244.68)"></rect><path fill="#aaaaaa" d="M59.955 245.306q-1.41-.7-1.41-2.64 0-1.6 1.1-2.43 1.11-.84 2.82-.84.45 0 1.12.09l3.57-.09-.04.72h-2.07q1.04.78 1.04 2.35t-1.04 2.41q-1.05.85-2.7.85-1.06 0-1.77-.19-.36.34-.36.79 0 .65.72.94.71.28 1.68.41 2.14.29 3.09.8 1.37.76 1.37 2.34 0 1.58-1.5 2.34-1.14.57-2.75.57-1.62 0-2.49-.25-2.3-.67-2.3-2.47 0-1.81 2.03-3.06-.8-.59-.8-1.37 0-.78.69-1.27m5.89 5.49q0-1.24-1.64-1.71-.45-.13-1.63-.32t-1.84-.46q-1.47 1.22-1.47 2.36 0 .49.16.81.15.33.53.57.83.57 2.54.57 2.25 0 3.04-.95.31-.36.31-.87m-1.05-8.38q0-2.01-2.39-2.01-1.14 0-1.88.52t-.74 1.6q0 1.07.53 1.63.53.56 1.79.56 1.27 0 1.98-.61t.71-1.69"></path><rect width="9.12" height="14.33" x="-4.56" y="-7.17" fill="none" rx="0" ry="0" transform="translate(63.1 247.06)"></rect><path fill="#aaaaaa" d="M80.835 241.336q2.11.78 2.11 3.51 0 1.39-.32 2.15-.31.76-.9 1.2-1.08.78-3.38.78h-3.14v-13.3h2.85q3.01 0 3.8 1.52.29.53.29 1.29t-.39 1.56q-.39.79-.92 1.29m-4.33.74v5.85h1.74q1.77 0 2.49-.47.92-.59.92-2.34 0-2.38-1.68-2.87-.55-.17-1.25-.17Zm3.42-.97q.93-1.22.93-2.39 0-1.18-.74-1.59-.74-.41-2.15-.41h-1.46v4.31h2.31q.57 0 1.11.08"></path><rect width="7.74" height="13.3" x="-3.87" y="-6.65" fill="none" rx="0" ry="0" transform="translate(79.58 242.83)"></rect><path fill="#aaaaaa" d="M87.085 247.756q.42.15 1.33.15.91 0 2.36-.74v-7.69l1.23-.1v9.6h-1.23v-1.03q-1.41 1.08-2.87 1.08-1.83 0-2.64-1.08-.42-.53-.42-1.48v-6.99l1.23-.1v6.76q0 1.18 1.01 1.62"></path><rect width="7.16" height="9.65" x="-3.58" y="-4.83" fill="none" rx="0" ry="0" transform="translate(88.92 244.7)"></rect><path fill="#aaaaaa" d="M98.405 239.376q1.12 0 2.13.67v-5.23l1.24-.09v13.81h-.1q-.59.25-1.97.38-1.37.13-1.9.13-1.6 0-2.65-.8-1.46-1.1-1.46-3.63 0-2.52 1.36-3.88 1.36-1.36 3.35-1.36m2.13 1.48q-.95-.36-1.86-.36-1.75 0-2.75 1.07-.99 1.06-.99 3.02 0 1.95 1.08 2.75.78.61 1.97.61 1.18 0 2.55-.19Z"></path><rect width="8.08" height="14.32" x="-4.04" y="-7.16" fill="none" rx="0" ry="0" transform="translate(98.23 242.39)"></rect><path fill="#aaaaaa" d="M103.725 240.496q2.07-1.02 3.63-1.08 1.24 0 1.91.31.68.32 1.09.88.42.56.42 1.56v6.81h-1.23v-.73q-2.61.8-3.35.8h-.05q-1.71 0-2.34-1.04-.23-.38-.26-.74-.03-.37-.03-.61 0-.69.54-1.23.53-.54 1.27-.73 1.25-.32 4.22-.57v-1.54q0-2.07-2.17-2.07-1.52 0-3.3.89Zm.95 6.31q0 1.37 1.88 1.37 1.51 0 2.99-.65v-2.72q-2.97.42-3.67.65-1.2.38-1.2 1.35"></path><rect width="7.26" height="9.63" x="-3.63" y="-4.82" fill="none" rx="0" ry="0" transform="translate(107.64 244.73)"></rect><path fill="#aaaaaa" d="M119.065 247.646q-.63.62-1.4.94-.77.31-1.32.35-.55.04-1.08.04-.54 0-1.16-.1v4.75l-1.24.1v-13.76q.42-.13 1.28-.4.87-.27 1.85-.27.98 0 1.69.17.71.16 1.32.61 1.42 1.11 1.42 3.65 0 2.55-1.36 3.92m-4.96.26q.57.13 1.21.13 1.87 0 2.87-1.1 1.01-1.1 1.01-3.09 0-2-1.03-2.85-.72-.59-1.85-.59-1.13 0-2.21.32Z"></path><rect width="7.56" height="14.43" x="-3.78" y="-7.21" fill="none" rx="0" ry="0" transform="translate(117.14 247.01)"></rect><path fill="#aaaaaa" d="M123.055 244.607q0 3.34 3.19 3.34 1.35 0 2.47-.36.28-.1.4-.15l.28 1q-.66.4-2.41.57-.49.04-1.05.04-1.59 0-2.66-.8-1.46-1.08-1.46-3.61 0-2.52 1.32-3.88 1.32-1.36 3.2-1.36 1.88 0 2.83 1.22.73.96.73 2.56 0 .38-.04.8h-6.78q-.02.15-.02.32Zm3.36-4.03q-1.18 0-2.01.71-.84.71-1.16 1.83h5.53q-.1-2.11-1.64-2.45-.34-.09-.72-.09"></path><rect width="8.08" height="9.65" x="-4.04" y="-4.83" fill="none" rx="0" ry="0" transform="translate(126.36 244.72)"></rect><path fill="#aaaaaa" d="M137.115 240.727q-.69-.23-1.87-.23-1.17 0-1.82.42-.65.42-.65 1.04 0 .61.38.9.38.28.95.48.57.2 1.25.39.67.19 1.24.5 1.33.68 1.33 2.03 0 1.35-.92 2.07-.92.72-2.69.72-.89 0-1.72-.18-.82-.18-1.26-.5l.42-1.01q.44.38 1.77.55.41.06.85.06.99 0 1.65-.41.67-.41.67-1.24 0-.57-.38-.9-.38-.32-.95-.54-.57-.22-1.25-.39-.67-.17-1.24-.44-.57-.28-.95-.73-.38-.44-.38-1.2 0-1.24.95-1.98t2.55-.74q.39 0 .81.05.42.04.76.08l.8.14Z"></path><rect width="6.59" height="9.65" x="-3.29" y="-4.83" fill="none" rx="0" ry="0" transform="translate(135.13 244.72)"></rect><path fill="#aaaaaa" d="M143.765 248.627q-.35.35-1.24.35-1.25 0-1.69-.65-.74-.7-.74-1.9v-5.85h-1.06l.17-1.1h.89v-1.89l1.23-.11v2h2.21v1.1h-2.21v6.15q0 1.11 1.14 1.11.5 0 1.07-.23Z"></path><rect width="4.73" height="11.5" x="-2.37" y="-5.75" fill="none" rx="0" ry="0" transform="translate(141.9 243.73)"></rect><path fill="#aaaaaa" d="m145.205 247.736 1.03.02q0 1.03-.46 2.85l-.08.32-.87-.04q0-.01.19-1.14.19-1.14.19-1.53z"></path><rect width="1.41" height="3.19" x="-.7" y="-1.59" fill="none" rx="0" ry="0" transform="translate(146.03 249.83)"></rect><path fill="#aaaaaa" d="M159.185 235.596q5.61 0 5.61 6.76 0 3.1-1.6 4.9-1.59 1.79-4.01 1.79-2.56 0-3.97-1.4-1.63-1.68-1.63-5.04 0-3.36 1.6-5.19 1.61-1.82 4-1.82m-3.04 11.13q1.05 1.18 3.04 1.18 1.89 0 3.1-1.49 1.22-1.49 1.22-4.28 0-2.8-1.28-4.2-1.06-1.2-3.04-1.2-1.86 0-3.08 1.5-1.23 1.5-1.23 4.3 0 2.81 1.27 4.19"></path><rect width="11.21" height="13.45" x="-5.61" y="-6.72" fill="none" rx="0" ry="0" transform="translate(159.69 242.82)"></rect><path fill="#aaaaaa" d="M167.795 240.516q1.43-1.04 2.7-1.1 1.16 0 1.79.28.62.29 1.03.81.41.52.41 1.47v7h-1.24v-6.67q0-.71-.3-1.09-.61-.7-1.86-.7-1.2.06-2.53.78v7.68h-1.23v-9.5l1.23-.1Z"></path><rect width="7.16" height="9.6" x="-3.58" y="-4.8" fill="none" rx="0" ry="0" transform="translate(170.65 244.68)"></rect><path fill="#aaaaaa" d="M177.145 244.607q0 3.34 3.19 3.34 1.35 0 2.47-.36.29-.1.4-.15l.29 1q-.67.4-2.42.57-.49.04-1.04.04-1.6 0-2.66-.8-1.47-1.08-1.47-3.61 0-2.52 1.32-3.88 1.33-1.36 3.21-1.36t2.83 1.22q.72.96.72 2.56 0 .38-.04.8h-6.78q-.02.15-.02.32Zm3.36-4.03q-1.18 0-2.01.71-.84.71-1.16 1.83h5.53q-.1-2.11-1.64-2.45-.34-.09-.72-.09"></path><rect width="8.08" height="9.65" x="-4.04" y="-4.83" fill="none" rx="0" ry="0" transform="translate(180.44 244.72)"></rect><path fill="#aaaaaa" d="M191.865 248.976v-13.3h2.76q2.34 0 3.38.74 1.22.85 1.22 2.92 0 3.46-2.66 4.22-.86.25-1.94.25h-1.46v5.17Zm1.3-12.26v6.04h1.36q1.71 0 2.56-.75.85-.75.85-2.45 0-1.7-.85-2.27-.85-.57-2.56-.57Z"></path><rect width="7.36" height="13.3" x="-3.68" y="-6.65" fill="none" rx="0" ry="0" transform="translate(196.04 242.83)"></rect><path fill="#aaaaaa" d="M205.795 240.806q-.3-.18-.64-.18-.35 0-.38.02-.73 0-1.46.53-.73.52-1.24 1.16v6.64h-1.24v-9.5l1.24-.1v2.13q.7-.89 1.19-1.26.92-.68 1.75-.72.12-.02.42-.02t.86.16Z"></path><rect width="5.46" height="9.6" x="-2.73" y="-4.8" fill="none" rx="0" ry="0" transform="translate(204.06 244.68)"></rect><path fill="#aaaaaa" d="M206.785 246.537q-.34-.91-.34-2.12 0-2.34 1.31-3.68 1.31-1.34 3.29-1.34 3.09 0 4.06 2.51.36.91.36 2.13 0 2.33-1.31 3.67-1.31 1.34-3.29 1.34-3.09 0-4.08-2.51m.89-2.26v.88q0 .87.9 1.83.91.96 2.33.96 1.43 0 2.38-1.02.95-1.01.95-2.76 0-1.75-.9-2.71-.89-.96-2.32-.96-1.44 0-2.39 1.02-.95 1.01-.95 2.76"></path><rect width="9.02" height="9.65" x="-4.51" y="-4.83" fill="none" rx="0" ry="0" transform="translate(211.46 244.72)"></rect><path fill="#aaaaaa" d="M223.395 247.646q-.63.62-1.4.94-.77.31-1.32.35-.55.04-1.08.04-.54 0-1.16-.1v4.75l-1.24.1v-13.76q.42-.13 1.28-.4.87-.27 1.85-.27.98 0 1.69.17.71.16 1.32.61 1.42 1.11 1.42 3.65 0 2.55-1.36 3.92m-4.96.26q.57.13 1.21.13 1.86 0 2.87-1.1t1.01-3.09q0-2-1.03-2.85-.72-.59-1.85-.59-1.13 0-2.21.32Z"></path><rect width="7.56" height="14.43" x="-3.78" y="-7.21" fill="none" rx="0" ry="0" transform="translate(221.47 247.01)"></rect><path fill="#aaaaaa" d="M227.385 244.607q0 3.34 3.19 3.34 1.35 0 2.47-.36.28-.1.4-.15l.28 1q-.66.4-2.41.57-.5.04-1.05.04-1.59 0-2.66-.8-1.46-1.08-1.46-3.61 0-2.52 1.32-3.88 1.32-1.36 3.2-1.36 1.88 0 2.83 1.22.73.96.73 2.56 0 .38-.04.8h-6.79q-.01.15-.01.32Zm3.36-4.03q-1.18 0-2.02.71-.83.71-1.15 1.83h5.52q-.09-2.11-1.63-2.45-.34-.09-.72-.09"></path><rect width="8.08" height="9.65" x="-4.04" y="-4.83" fill="none" rx="0" ry="0" transform="translate(230.69 244.72)"></rect><path fill="#aaaaaa" d="M240.815 240.806q-.31-.18-.65-.18t-.38.02q-.72 0-1.45.53-.73.52-1.25 1.16v6.64h-1.23v-9.5l1.23-.1v2.13q.71-.89 1.2-1.26.91-.68 1.75-.72.11-.02.42-.02.3 0 .85.16Z"></path><rect width="5.45" height="9.6" x="-2.73" y="-4.8" fill="none" rx="0" ry="0" transform="translate(239.08 244.68)"></rect><path fill="#aaaaaa" d="M246.795 248.627q-.34.35-1.23.35-1.26 0-1.69-.65-.74-.7-.74-1.9v-5.85h-1.07l.17-1.1h.9v-1.89l1.23-.11v2h2.21v1.1h-2.21v6.15q0 1.11 1.14 1.11.5 0 1.07-.23Z"></path><rect width="4.73" height="11.5" x="-2.37" y="-5.75" fill="none" rx="0" ry="0" transform="translate(244.93 243.73)"></rect><path fill="#aaaaaa" d="m247.715 239.476 1.38-.1 2.83 8.7 3.65-8.6h1.33l-6.31 14.25h-1.16l2.09-4.75h-.43Z"></path><rect width="9.19" height="14.35" x="-4.59" y="-7.17" fill="none" rx="0" ry="0" transform="translate(252.81 247.05)"></rect><path fill="#aaaaaa" d="M272.545 245.456h-5.85l-1.22 3.52h-1.23l4.8-13.3h1.16l4.98 13.3h-1.39Zm-5.53-.95h5.19l-2.64-7.39Z"></path><rect width="10.94" height="13.3" x="-5.47" y="-6.65" fill="none" rx="0" ry="0" transform="translate(270.21 242.83)"></rect><path fill="#aaaaaa" d="M280.755 248.627q-.35.35-1.24.35-1.25 0-1.69-.65-.74-.7-.74-1.9v-5.85h-1.06l.17-1.1h.89v-1.89l1.23-.11v2h2.21v1.1h-2.21v6.15q0 1.11 1.14 1.11.5 0 1.07-.23Z"></path><rect width="4.73" height="11.5" x="-2.37" y="-5.75" fill="none" rx="0" ry="0" transform="translate(278.89 243.73)"></rect><path fill="#aaaaaa" d="M296.405 245.456h-5.85l-1.22 3.52h-1.23l4.81-13.3h1.16l4.97 13.3h-1.38Zm-5.53-.95h5.19l-2.64-7.39Z"></path><rect width="10.94" height="13.3" x="-5.47" y="-6.65" fill="none" rx="0" ry="0" transform="translate(294.07 242.83)"></rect><path fill="#aaaaaa" d="M310.315 248.976v-12.16h-3.76l.09-1.14h8.61l-.09 1.14h-3.65v12.16Z"></path><rect width="8.7" height="13.3" x="-4.35" y="-6.65" fill="none" rx="0" ry="0" transform="translate(311.4 242.83)"></rect><path fill="#aaaaaa" d="M318.335 239.377v9.6h-1.24v-9.5Zm-.67-2.45h-.19q-.19 0-.39-.25-.2-.24-.2-.62t.22-.62q.22-.24.6-.24t.62.24q.24.24.24.65 0 .42-.26.63-.26.21-.64.21"></path><rect width="1.68" height="13.78" x="-.84" y="-6.89" fill="none" rx="0" ry="0" transform="translate(318.23 242.59)"></rect><path fill="#aaaaaa" d="M324.375 240.516q-1.06.06-2.3.7v7.76h-1.23v-9.5l1.23-.1v1.06q1.27-.96 2.47-1.02 2.02 0 2.78 1.01 1.44-.95 2.79-1.01 1.16 0 1.78.28.63.29 1.04.81.41.52.41 1.47v7h-1.24v-6.67q0-.71-.32-1.09-.59-.7-1.67-.7-1.14 0-2.43.68.09.38.09.78v7h-1.23v-6.67q0-.71-.31-1.09-.61-.7-1.86-.7"></path><rect width="12.5" height="9.6" x="-6.25" y="-4.8" fill="none" rx="0" ry="0" transform="translate(327.6 244.68)"></rect><path fill="#aaaaaa" d="M336.765 244.607q0 3.34 3.19 3.34 1.35 0 2.47-.36.29-.1.4-.15l.28 1q-.66.4-2.41.57-.49.04-1.04.04-1.6 0-2.66-.8-1.47-1.08-1.47-3.61 0-2.52 1.32-3.88 1.32-1.36 3.21-1.36 1.88 0 2.83 1.22.72.96.72 2.56 0 .38-.04.8h-6.78q-.02.15-.02.32Zm3.36-4.03q-1.18 0-2.01.71-.84.71-1.16 1.83h5.53q-.1-2.11-1.64-2.45-.34-.09-.72-.09"></path><rect width="8.08" height="9.65" x="-4.04" y="-4.83" fill="none" rx="0" ry="0" transform="translate(340.06 244.72)"></rect><path fill="#aaaaaa" d="M345.545 249.126h-.17q-.16 0-.3-.19-.14-.19-.14-.53 0-.35.18-.56.18-.2.54-.2.61 0 .61.77 0 .33-.2.52t-.52.19"></path><rect width="1.33" height="1.48" x="-.67" y="-.74" fill="none" rx="0" ry="0" transform="translate(346.1 248.89)"></rect></svg></svg>